<svg width="77" height="65" fill="none" xmlns="http://www.w3.org/2000/svg"><path d="M77 50.5 55.5 0 50 23.3l27 27.2z" fill="#1399D6"/><path d="M38.5 14.5 55.5 0 50 23.8l-11.5-9.3z" fill="#74A5CE"/><path d="M38.5 64.35 77 50.463 50 23.1 38.5 64.35z" fill="#0A669D"/><path d="M38.5 14.4 19.5 0l8 23.4 11-9z" fill="#9DD1E9"/><path d="M0 51.3 19.5 0l8 23.3L0 51.3z" fill="#50B8C5"/><path d="M0 51.176 27.464 23.3l10.986 41L0 51.176z" fill="#349AB4"/><path d="m38.5 15 11 8.5-11 39-10.5-39L38.5 15z" fill="#353589"/><path d="m49.5 23.5-11-8.5L28 23.5m21.5 0H28m21.5 0-11 39-10.5-39" stroke="#353589"/></svg>